<?xml version="1.0" encoding="UTF-8"?>
<svg id="Layer_1" data-name="Layer 1" xmlns="http://www.w3.org/2000/svg" viewBox="0 0 1957.52 510.49">
  <defs>
    <style>
      .cls-1, .cls-2 {
        fill: #fff;
      }

      .cls-2 {
        font-family: Evogria, Evogria;
        font-size: 91.56px;
      }

      .cls-3 {
        letter-spacing: -.05em;
      }

      .cls-4 {
        fill: #0ab27c;
      }
    </style>
  </defs>
  <g>
    <rect class="cls-4" x="172.19" y="175.14" width="27.05" height="41.98"/>
    <path class="cls-4" d="M287.75,80.76v136.36h-59.93v-48.96c0-5.44-2.1-10.09-6.3-13.95-4.14-3.8-9.07-5.7-14.8-5.7h-42.02c-5.72,0-10.66,1.9-14.8,5.7-4.19,3.86-6.29,8.51-6.29,13.95v48.96h-59.94V80.76c0-11.69,9.48-21.17,21.18-21.17h161.73c11.7,0,21.17,9.48,21.17,21.17Z"/>
    <rect class="cls-4" x="172.19" y="223.83" width="27.05" height="41.98"/>
    <path class="cls-4" d="M287.75,223.83v136.35c0,11.7-9.47,21.18-21.17,21.18H104.85c-11.7,0-21.18-9.48-21.18-21.18v-136.35h59.94v48.95c0,5.45,2.1,10.1,6.29,13.95,4.14,3.8,9.08,5.7,14.8,5.7h42.02c5.73,0,10.66-1.9,14.8-5.7,4.2-3.85,6.3-8.5,6.3-13.95v-48.95h59.93Z"/>
    <polygon class="cls-4" points="388.51 199.72 392.91 217.12 388.51 217.12 388.51 199.72"/>
    <path class="cls-4" d="M507.77,80.76v136.36h-56.23v-68.61h-28.58v68.61h-6.16l-17.23-68.61h-39.64v68.61h-56.24V80.76c0-11.69,9.48-21.17,21.17-21.17h161.74c11.7,0,21.17,9.48,21.17,21.17Z"/>
    <polygon class="cls-4" points="422.96 241.65 418.48 223.83 422.96 223.83 422.96 241.65"/>
    <path class="cls-4" d="M507.77,223.83v136.35c0,11.7-9.47,21.18-21.17,21.18h-161.74c-11.69,0-21.17-9.48-21.17-21.18v-136.35h56.24v68.6h28.58v-68.6h6.1l17.37,68.6h39.56v-68.6h56.23Z"/>
  </g>
  <path class="cls-1" d="M725.73,80.76v136.36h-87.76v-41.98h27.82v-26.63h-84.21v26.63h27.9v41.98h-87.84V80.76c0-11.69,9.48-21.17,21.17-21.17h161.74c11.69,0,21.18,9.48,21.18,21.17Z"/>
  <path class="cls-1" d="M725.73,223.83v136.35c0,11.7-9.49,21.18-21.18,21.18h-161.74c-11.69,0-21.17-9.48-21.17-21.18v-136.35h87.84v68.6h28.49v-68.6h87.76Z"/>
  <path class="cls-1" d="M945.74,80.76v136.36h-87.75v-68.61h-28.58v68.61h-87.75V80.76c0-11.69,9.48-21.17,21.17-21.17h161.74c11.69,0,21.17,9.48,21.17,21.17Z"/>
  <path class="cls-1" d="M945.74,223.83v136.35c0,11.7-9.48,21.18-21.17,21.18h-161.74c-11.69,0-21.17-9.48-21.17-21.18v-136.35h87.75v68.6h28.58v-68.6h87.75Z"/>
  <polygon class="cls-1" points="1096.96 217.12 1101.06 197.59 1101.06 217.12 1096.96 217.12"/>
  <polygon class="cls-1" points="1026.38 197.59 1030.51 217.12 1026.38 217.12 1026.38 197.59"/>
  <path class="cls-1" d="M1165.76,80.76v136.36h-36.12v-68.61h-39.64l-15.36,68.61h-21.73l-15.47-68.61h-39.64v68.61h-36.12V80.76c0-11.69,9.48-21.17,21.17-21.17h161.74c11.69,0,21.17,9.48,21.17,21.17Z"/>
  <polygon class="cls-1" points="1063.81 265.47 1054.42 223.83 1073.13 223.83 1063.81 265.47"/>
  <path class="cls-1" d="M1165.76,223.83v136.35c0,11.7-9.48,21.18-21.17,21.18h-161.74c-11.69,0-21.17-9.48-21.17-21.18v-136.35h36.12v68.6h28.58v-68.6h5.55l14.52,68.6h34.71l14.39-68.6h5.51v68.6h28.58v-68.6h36.12Z"/>
  <path class="cls-1" d="M1385.78,80.76v136.36h-71.93v-10h-39.64v-31.98h47.64v-26.63h-76.22v68.61h-63.93V80.76c0-11.69,9.48-21.17,21.17-21.17h161.74c11.69,0,21.17,9.48,21.17,21.17Z"/>
  <path class="cls-1" d="M1385.78,223.83v136.35c0,11.7-9.48,21.18-21.17,21.18h-161.74c-11.69,0-21.17-9.48-21.17-21.18v-136.35h63.93v68.6h76.22v-26.62h-47.64v-31.98h39.64v-10h71.93Z"/>
  <path class="cls-1" d="M1605.8,80.76v136.36h-107.57v-68.61h-28.58v68.61h-67.93V80.76c0-11.69,9.48-21.17,21.17-21.17h161.74c11.7,0,21.17,9.48,21.17,21.17Z"/>
  <path class="cls-1" d="M1605.8,223.83v136.35c0,11.7-9.47,21.18-21.17,21.18h-161.74c-11.69,0-21.17-9.48-21.17-21.18v-136.35h67.93v68.6h68.22v-26.62h-39.64v-41.98h107.57Z"/>
  <path class="cls-1" d="M1825.82,80.76v136.36h-79.47l21.7-68.61h-29.17c-4.13,13.97-9.16,36.84-15.09,68.61h-.1c-5.82-31.77-10.82-54.64-15.01-68.61h-29.17l21.74,68.61h-79.51V80.76c0-11.69,9.48-21.17,21.17-21.17h161.74c11.69,0,21.17,9.48,21.17,21.17Z"/>
  <path class="cls-1" d="M1825.82,223.83v136.35c0,11.7-9.48,21.18-21.17,21.18h-161.74c-11.69,0-21.17-9.48-21.17-21.18v-136.35h81.63l6.16,19.44v49.16h28.58v-49.25l6.12-19.35h81.59Z"/>
  <g>
    <path class="cls-1" d="M1863.12,359.9c-5.92,0-10.73,4.81-10.73,10.73s4.81,10.73,10.73,10.73,10.73-4.81,10.73-10.73-4.81-10.73-10.73-10.73ZM1863.12,379.95c-5.14,0-9.32-4.18-9.32-9.32s4.18-9.32,9.32-9.32,9.32,4.18,9.32,9.32-4.18,9.32-9.32,9.32Z"/>
    <path class="cls-1" d="M1863.4,374.15c-2.64,0-3.66-1.84-3.67-3.61-.02-1.78,1.1-3.7,3.67-3.7.93,0,1.87.32,2.58,1.01l1.34-1.3c-1.1-1.08-2.47-1.63-3.92-1.63-3.86,0-5.67,2.84-5.66,5.62.02,2.77,1.69,5.5,5.66,5.5,1.54,0,2.96-.5,4.05-1.59l-1.37-1.39c-.7.7-1.75,1.08-2.68,1.08Z"/>
  </g>
  <text class="cls-2" transform="translate(521.64 491.3)"><tspan x="0" y="0">event management soft</tspan><tspan class="cls-3" x="1070.13" y="0">w</tspan><tspan x="1149.44" y="0">are</tspan></text>
</svg>